<svg width="32" height="32" viewBox="0 0 32 32" fill="none" xmlns="http://www.w3.org/2000/svg">
<path fill-rule="evenodd" clip-rule="evenodd" d="M16 24C20.4183 24 24 20.4183 24 16C24 11.5817 20.4183 8 16 8C11.5817 8 8 11.5817 8 16C8 20.4183 11.5817 24 16 24ZM16 21.3333C18.9455 21.3333 21.3333 18.9455 21.3333 16C21.3333 13.0545 18.9455 10.6667 16 10.6667C13.0545 10.6667 10.6667 13.0545 10.6667 16C10.6667 18.9455 13.0545 21.3333 16 21.3333Z" fill="#323232"/>
<path d="M24.0003 6.66666C23.2639 6.66666 22.667 7.26362 22.667 8C22.667 8.73637 23.2639 9.33333 24.0003 9.33333C24.7367 9.33333 25.3337 8.73637 25.3337 8C25.3337 7.26362 24.7367 6.66666 24.0003 6.66666Z" fill="#323232"/>
<path fill-rule="evenodd" clip-rule="evenodd" d="M2.20495 5.70142C1.33301 7.41271 1.33301 9.65292 1.33301 14.1333V17.8667C1.33301 22.3471 1.33301 24.5873 2.20495 26.2985C2.97194 27.8039 4.19578 29.0277 5.70109 29.7947C7.41238 30.6667 9.65259 30.6667 14.133 30.6667H17.8663C22.3467 30.6667 24.587 30.6667 26.2982 29.7947C27.8035 29.0277 29.0274 27.8039 29.7943 26.2985C30.6663 24.5873 30.6663 22.3471 30.6663 17.8667V14.1333C30.6663 9.65292 30.6663 7.41271 29.7943 5.70142C29.0274 4.19611 27.8035 2.97227 26.2982 2.20528C24.587 1.33334 22.3467 1.33334 17.8663 1.33334H14.133C9.65259 1.33334 7.41238 1.33334 5.70109 2.20528C4.19578 2.97227 2.97194 4.19611 2.20495 5.70142ZM17.8663 4H14.133C11.8488 4 10.296 4.00208 9.09578 4.10014C7.92666 4.19566 7.32879 4.36879 6.91173 4.5813C5.90819 5.09263 5.0923 5.90852 4.58097 6.91206C4.36846 7.32912 4.19533 7.92699 4.09981 9.09611C4.00175 10.2963 3.99967 11.8491 3.99967 14.1333V17.8667C3.99967 20.1509 4.00175 21.7036 4.09981 22.9039C4.19533 24.0731 4.36846 24.6709 4.58097 25.088C5.0923 26.0915 5.90819 26.9073 6.91173 27.4187C7.32879 27.6312 7.92666 27.8044 9.09578 27.8999C10.296 27.9979 11.8488 28 14.133 28H17.8663C20.1506 28 21.7033 27.9979 22.9035 27.8999C24.0727 27.8044 24.6706 27.6312 25.0877 27.4187C26.0911 26.9073 26.907 26.0915 27.4183 25.088C27.6309 24.6709 27.8041 24.0731 27.8995 22.9039C27.9975 21.7036 27.9997 20.1509 27.9997 17.8667V14.1333C27.9997 11.8491 27.9975 10.2963 27.8995 9.09611C27.8041 7.92699 27.6309 7.32912 27.4183 6.91206C26.907 5.90852 26.0911 5.09263 25.0877 4.5813C24.6706 4.36879 24.0727 4.19566 22.9035 4.10014C21.7033 4.00208 20.1506 4 17.8663 4Z" fill="#323232"/>
</svg>
