<svg width="32" height="32" viewBox="0 0 32 32" fill="none" xmlns="http://www.w3.org/2000/svg">
<path d="M16.6555 1.029C18.2925 1.004 19.9175 1.017 21.5415 1.004C21.5955 3.035 22.4195 4.863 23.7305 6.217L23.7285 6.215C25.1395 7.486 26.9755 8.31 28.9995 8.45L29.0275 8.452V13.488C27.1155 13.44 25.3175 12.999 23.6965 12.241L23.7785 12.275C22.9945 11.898 22.3315 11.511 21.7015 11.079L21.7535 11.113C21.7415 14.762 21.7655 18.411 21.7285 22.047C21.6255 23.9 21.0095 25.59 20.0215 27.001L20.0415 26.97C18.3895 29.336 15.7135 30.889 12.6705 30.981H12.6565C12.5335 30.987 12.3885 30.99 12.2425 30.99C10.5125 30.99 8.89552 30.508 7.51752 29.671L7.55752 29.694C5.04952 28.185 3.31952 25.603 2.99952 22.6L2.99552 22.559C2.97052 21.934 2.95852 21.309 2.98352 20.697C3.47352 15.918 7.47752 12.221 12.3445 12.221C12.8915 12.221 13.4275 12.268 13.9485 12.357L13.8925 12.349C13.9175 14.198 13.8425 16.048 13.8425 17.897C13.4195 17.744 12.9315 17.655 12.4225 17.655C10.5545 17.655 8.96552 18.849 8.37752 20.516L8.36852 20.546C8.23552 20.973 8.15852 21.464 8.15852 21.972C8.15852 22.178 8.17152 22.382 8.19552 22.582L8.19352 22.558C8.52552 24.604 10.2795 26.148 12.3945 26.148C12.4555 26.148 12.5155 26.147 12.5755 26.144H12.5665C14.0295 26.1 15.2995 25.313 16.0175 24.15L16.0275 24.132C16.2945 23.76 16.4775 23.31 16.5385 22.821L16.5395 22.807C16.6645 20.57 16.6145 18.346 16.6265 16.109C16.6385 11.073 16.6145 6.049 16.6515 1.026L16.6555 1.029Z" fill="#323232"/>
</svg>
