<svg width="32" height="32" viewBox="0 0 32 32" fill="none" xmlns="http://www.w3.org/2000/svg">
<path fill-rule="evenodd" clip-rule="evenodd" d="M10.064 28.7997C22.1392 28.7997 28.744 18.9494 28.744 10.4083C28.744 10.1279 28.744 9.84957 28.7248 9.57233C30.0096 8.65866 31.1184 7.52425 32 6.22623C30.8032 6.74922 29.5312 7.0922 28.2304 7.24342C29.6 6.43531 30.6256 5.16572 31.1168 3.66764C29.8272 4.42061 28.4176 4.95203 26.9472 5.23717C24.4608 2.63482 20.3024 2.50873 17.6576 4.9567C15.9536 6.53512 15.2288 8.88851 15.7584 11.1333C10.48 10.8718 5.5616 8.41755 2.2272 4.38014C0.4848 7.33375 1.376 11.1109 4.2608 13.0075C3.216 12.9775 2.1936 12.7006 1.28 12.1997V12.2817C1.2816 15.3582 3.4848 18.0072 6.5472 18.6169C5.5808 18.8768 4.5664 18.9145 3.584 18.727C4.4432 21.3609 6.9088 23.1649 9.7168 23.2169C7.392 25.0158 4.52 25.9926 1.5632 25.9895C1.0416 25.9879 0.52 25.958 0 25.8965C3.0032 27.7932 6.496 28.7997 10.064 28.795" fill="#323232"/>
</svg>
