<svg width="832" height="129" viewBox="0 0 832 129" fill="none" xmlns="http://www.w3.org/2000/svg">
<g clip-path="url(#clip0_105_76)">
<mask id="mask0_105_76" style="mask-type:luminance" maskUnits="userSpaceOnUse" x="0" y="12" width="116" height="117">
<path d="M116 12H0V129H116V12Z" fill="white"/>
</mask>
<g mask="url(#mask0_105_76)">
<path fill-rule="evenodd" clip-rule="evenodd" d="M12.8417 93.4186C11.9316 93.4031 11.2143 93.7056 10.6744 94.3184C10.1422 94.939 9.87229 95.7226 9.87229 96.6845V102.743H7.6973V96.3742C7.6973 95.4588 7.48134 94.7374 7.04172 94.2098C6.60209 93.6823 6.01592 93.4186 5.28322 93.4186C4.41939 93.4186 3.68668 93.6901 3.08509 94.2331C2.47578 94.7762 2.17499 95.5984 2.17499 96.6845V102.743H0V91.5103H2.17499V93.1936C2.44493 92.6351 2.88456 92.1929 3.50158 91.8749C4.1186 91.5568 4.70476 91.3706 5.26008 91.3241C5.69199 91.3086 6.10077 91.3318 6.47869 91.3939C7.89783 91.6189 8.86963 92.3481 9.3941 93.5815C10.1885 92.0455 11.4842 91.2698 13.2659 91.2698C14.6542 91.2698 15.7185 91.7042 16.459 92.5653C17.1994 93.4341 17.5696 94.6598 17.5696 96.2423V102.735H15.3946V96.3897C15.3946 95.4588 15.1709 94.7296 14.7159 94.2021C14.2608 93.6746 13.6361 93.4108 12.8417 93.4108V93.4186Z" fill="white"/>
<path fill-rule="evenodd" clip-rule="evenodd" d="M23.2152 102.751V91.518H21.0634V102.751H23.2152ZM21.0788 88.3917C20.7857 88.1202 20.6392 87.7789 20.6392 87.3832C20.6392 86.9876 20.7857 86.6463 21.0788 86.3748C21.3719 86.1033 21.7267 85.9636 22.1431 85.9636C22.5596 85.9636 22.9144 86.1033 23.2075 86.3748C23.5006 86.6463 23.6471 86.9876 23.6471 87.3832C23.6471 87.7789 23.5006 88.1202 23.2075 88.3917C22.9144 88.6632 22.5596 88.8028 22.1431 88.8028C21.7267 88.8028 21.3719 88.6632 21.0788 88.3917Z" fill="white"/>
<path fill-rule="evenodd" clip-rule="evenodd" d="M27.8274 101.347C26.6782 100.245 26.1074 98.8333 26.1074 97.1034C26.1074 95.3735 26.6782 93.9694 27.8274 92.8911C28.9766 91.8128 30.3726 91.2776 32.0077 91.2776C33.7739 91.2776 35.2084 91.8749 36.3114 93.0773L34.6608 94.4737C33.959 93.7677 33.072 93.4186 32.0077 93.4186C30.9433 93.4186 30.0872 93.76 29.3545 94.4426C28.6218 95.1253 28.2516 96.0096 28.2516 97.1034C28.2516 98.1972 28.6218 99.1126 29.3545 99.8185C30.0872 100.524 30.9742 100.874 32.0077 100.874C33.0412 100.874 33.959 100.501 34.6608 99.7642L36.3345 101.161C35.2162 102.379 33.7739 102.991 32.0077 102.991C30.3648 102.991 28.9688 102.441 27.8274 101.347Z" fill="white"/>
<path fill-rule="evenodd" clip-rule="evenodd" d="M41.2634 98.6627V102.751H39.0884V91.5181H41.2634V94.0471C41.8033 92.2008 42.8445 91.2854 44.3716 91.2854C45.2509 91.2854 45.891 91.4328 46.3075 91.7198L45.9758 93.7678C45.4514 93.5118 44.9038 93.3799 44.3253 93.3799C43.3072 93.3799 42.5437 93.8686 42.0269 94.8383C41.5179 95.808 41.2634 97.088 41.2634 98.6705V98.6627Z" fill="white"/>
<path fill-rule="evenodd" clip-rule="evenodd" d="M57.4905 101.347C56.349 102.448 54.9685 102.991 53.3411 102.991C51.7137 102.991 50.3331 102.448 49.2071 101.354C48.0733 100.261 47.5103 98.8488 47.5103 97.0956C47.5103 95.3424 48.0733 93.9616 49.1993 92.8833C50.3254 91.805 51.706 91.2698 53.3488 91.2698C54.9916 91.2698 56.3799 91.805 57.5059 92.8833C58.6397 93.9539 59.2027 95.358 59.2027 97.0956C59.2027 98.8333 58.632 100.245 57.4905 101.339V101.347ZM50.7265 99.834C51.436 100.532 52.3076 100.881 53.3411 100.881C54.3746 100.881 55.2461 100.532 55.9557 99.834C56.6653 99.1358 57.02 98.2282 57.02 97.1034C57.02 95.9786 56.6653 95.1097 55.9557 94.4348C55.2461 93.7599 54.3746 93.4263 53.3411 93.4263C52.3076 93.4263 51.436 93.7599 50.7265 94.4348C50.0169 95.1097 49.6621 95.9941 49.6621 97.1034C49.6621 98.2127 50.0169 99.1358 50.7265 99.834Z" fill="white"/>
<path fill-rule="evenodd" clip-rule="evenodd" d="M63.0671 101.347C61.9179 100.245 61.3472 98.8333 61.3472 97.1034C61.3472 95.3735 61.9179 93.9694 63.0671 92.8911C64.2163 91.8128 65.6123 91.2776 67.2474 91.2776C69.0136 91.2776 70.4482 91.8749 71.5511 93.0773L69.9006 94.4737C69.1987 93.7677 68.3118 93.4186 67.2474 93.4186C66.1831 93.4186 65.3269 93.76 64.5942 94.4426C63.8615 95.1253 63.4913 96.0096 63.4913 97.1034C63.4913 98.1972 63.8615 99.1126 64.5942 99.8185C65.3269 100.524 66.2139 100.874 67.2474 100.874C68.2809 100.874 69.1987 100.501 69.9006 99.7642L71.5742 101.161C70.4559 102.379 69.0136 102.991 67.2474 102.991C65.6046 102.991 64.2086 102.441 63.0671 101.347Z" fill="white"/>
<path fill-rule="evenodd" clip-rule="evenodd" d="M83.282 101.347C82.1405 102.448 80.76 102.991 79.1326 102.991C77.5052 102.991 76.1246 102.448 74.9986 101.354C73.8648 100.261 73.3018 98.8488 73.3018 97.0956C73.3018 95.3424 73.8648 93.9616 74.9908 92.8833C76.1169 91.8128 77.4975 91.2698 79.1403 91.2698C80.7831 91.2698 82.1714 91.805 83.2975 92.8833C84.4312 93.9539 84.9943 95.358 84.9943 97.0956C84.9943 98.8333 84.4235 100.245 83.282 101.339V101.347ZM76.518 99.834C77.2275 100.532 78.0991 100.881 79.1326 100.881C80.1661 100.881 81.0376 100.532 81.7472 99.834C82.4568 99.1358 82.8116 98.2282 82.8116 97.1034C82.8116 95.9786 82.4568 95.1097 81.7472 94.4348C81.0376 93.7599 80.1661 93.4263 79.1326 93.4263C78.0991 93.4263 77.2275 93.7599 76.518 94.4348C75.8084 95.1097 75.4536 95.9941 75.4536 97.1034C75.4536 98.2127 75.8084 99.1358 76.518 99.834Z" fill="white"/>
<path fill-rule="evenodd" clip-rule="evenodd" d="M90.424 97.7939C89.3596 97.5069 88.5652 97.0725 88.0562 96.4984C87.5471 95.9244 87.3389 95.1331 87.4315 94.1401C87.5086 93.3256 87.9251 92.643 88.6732 92.0999C89.4213 91.5569 90.3006 91.2854 91.3032 91.2854C92.3059 91.2854 93.2237 91.5492 93.9487 92.0689C94.6737 92.5887 95.0825 93.3877 95.1827 94.4582H93.1003C93.0386 94.0548 92.8381 93.7445 92.5141 93.5195C92.1902 93.2946 91.8046 93.186 91.3572 93.186C90.9407 93.186 90.5782 93.2791 90.2697 93.4652C89.9612 93.6514 89.7607 93.8919 89.6836 94.2022C89.591 94.5513 89.5987 94.8538 89.7067 95.0943C89.8841 95.4667 90.3237 95.7537 91.0179 95.9632L92.6684 96.3743C94.5966 96.8553 95.5607 97.9491 95.5607 99.6479C95.5607 100.656 95.1442 101.471 94.3035 102.092C93.4705 102.712 92.4447 103.015 91.2338 103.015C90.1695 103.015 89.2131 102.689 88.3801 102.029C87.5471 101.37 87.1075 100.501 87.0767 99.4075H89.0588C89.1514 99.997 89.4599 100.424 89.9689 100.68C90.4625 100.982 91.0564 101.114 91.7352 101.068C92.2442 101.037 92.653 100.881 92.9538 100.61C93.2546 100.338 93.4165 99.997 93.432 99.6014C93.4474 99.2135 93.324 98.911 93.0463 98.686C92.7764 98.461 92.4062 98.2904 91.9434 98.1818L90.4163 97.8249L90.424 97.7939Z" fill="white"/>
<path fill-rule="evenodd" clip-rule="evenodd" d="M111.225 93.4186C110.315 93.4031 109.598 93.7056 109.058 94.3184C108.518 94.9313 108.256 95.7226 108.256 96.6845V102.743H106.081V96.3742C106.081 95.4588 105.865 94.7374 105.426 94.2098C104.986 93.6823 104.4 93.4186 103.667 93.4186C102.803 93.4186 102.07 93.6901 101.469 94.2331C100.86 94.7762 100.559 95.5984 100.559 96.6845V102.743H98.3838V91.5103H100.559V93.1936C100.829 92.6351 101.268 92.1929 101.885 91.8749C102.502 91.5568 103.089 91.3706 103.644 91.3241C104.076 91.3086 104.485 91.3318 104.862 91.3939C106.282 91.6189 107.253 92.3481 107.778 93.5815C108.572 92.0455 109.868 91.2698 111.65 91.2698C113.038 91.2698 114.102 91.7042 114.843 92.5653C115.583 93.4341 115.953 94.6598 115.953 96.2423V102.735H113.778V96.3897C113.778 95.4588 113.555 94.7296 113.1 94.2021C112.645 93.6746 112.02 93.4108 111.225 93.4108V93.4186Z" fill="white"/>
<path opacity="0.45" d="M76.1379 67.7769C89.8276 57.7622 92.8534 38.4816 82.8964 24.7126C72.9393 10.9436 53.7699 7.90014 40.0803 17.915C26.3907 27.9298 23.3648 47.2103 33.3219 60.9793C43.2789 74.7483 62.4483 77.7917 76.1379 67.7769Z" fill="white"/>
<path opacity="0.46" fill-rule="evenodd" clip-rule="evenodd" d="M53.7659 27.6756C70.0321 22.9823 85.1644 25.969 87.5554 34.3548C89.9463 42.7406 78.7012 53.345 62.4273 58.0383C46.1612 62.7315 31.0288 59.7449 28.6379 51.3591C26.2469 42.9733 37.4921 32.3689 53.7659 27.6756Z" fill="white"/>
<path opacity="0.7" fill-rule="evenodd" clip-rule="evenodd" d="M43.0066 47.2089C38.3404 30.8484 41.3098 15.6283 49.6472 13.2235C57.9847 10.8186 68.528 22.129 73.1942 38.4972C77.8604 54.8577 74.891 70.0778 66.5535 72.4827C58.216 74.8875 47.6728 63.5771 43.0066 47.2089Z" fill="white"/>
<path opacity="0.37" fill-rule="evenodd" clip-rule="evenodd" d="M44.3638 35.2004C52.5625 20.3061 65.3656 11.6643 72.9549 15.8921C80.5442 20.1199 80.0429 35.6193 71.8366 50.5136C63.6379 65.4079 50.8348 74.0497 43.2455 69.8219C35.6562 65.5941 36.1575 50.0947 44.3638 35.2004Z" fill="white"/>
<path opacity="0.43" fill-rule="evenodd" clip-rule="evenodd" d="M50.4879 56.6652C35.6795 48.419 27.0875 35.5494 31.291 27.9161C35.4944 20.2828 50.9044 20.787 65.7128 29.0409C80.5213 37.2871 89.1133 50.1645 84.9098 57.7978C80.7064 65.4311 65.2964 64.9269 50.4879 56.673V56.6652Z" fill="white"/>
<path fill-rule="evenodd" clip-rule="evenodd" d="M45.0888 53.2675C42.7518 50.1025 41.4252 44.9438 41.5795 40.9642C42.0963 36.9381 45.0657 31.8725 47.7497 29.7702C50.6342 27.6602 56.4265 26.0234 59.9821 26.2406C64.1238 27.0939 68.7823 29.8633 71.1192 32.4465C73.4562 35.3323 74.644 40.9487 74.6285 44.7499C74.0038 49.2414 71.636 52.8021 68.4584 55.9439C65.9517 57.922 61.1235 59.6364 56.226 59.4735C52.4467 59.0624 47.3718 55.7965 45.0965 53.2675H45.0888Z" fill="white"/>
<mask id="mask1_105_76" style="mask-type:luminance" maskUnits="userSpaceOnUse" x="14" y="106" width="88" height="24">
<path d="M101.633 106.397H14.4795V129.669H101.633V106.397Z" fill="white"/>
</mask>
<g mask="url(#mask1_105_76)">
<path d="M16.9093 112.419V114.227C17.6971 112.914 19.2973 112.172 20.9222 112.172C24.0734 112.172 26.683 114.574 26.683 118.238C26.683 121.903 24.0734 124.231 20.9222 124.231C19.2973 124.231 17.6971 123.562 16.9093 122.25V129.604H14.6689V112.419H16.9093ZM16.9339 118.263C16.9339 120.739 18.8542 122.027 20.7006 122.027C22.7686 122.027 24.4181 120.566 24.4181 118.263C24.4181 115.96 22.7686 114.375 20.7006 114.375C18.6818 114.375 16.9339 115.812 16.9339 118.263Z" fill="white"/>
<path d="M31.4313 112.419V123.983H29.2156V112.419H31.4313ZM28.7725 108.16C28.7725 107.294 29.4618 106.699 30.3235 106.699C31.1852 106.699 31.8745 107.294 31.8745 108.16C31.8745 109.027 31.1852 109.621 30.3235 109.621C29.4618 109.621 28.7725 109.027 28.7725 108.16Z" fill="white"/>
<path d="M34.1753 118.164C34.1753 114.499 36.9819 112.172 40.2562 112.172C42.0288 112.172 43.6044 112.84 44.6876 114.029L42.9889 115.465C42.2996 114.772 41.3148 114.375 40.2562 114.375C38.1882 114.375 36.391 115.836 36.391 118.164C36.391 120.467 38.1882 122.052 40.2562 122.052C41.3148 122.052 42.2996 121.631 42.9889 120.913L44.7123 122.349C43.629 123.537 42.0288 124.231 40.2562 124.231C36.9819 124.231 34.1753 121.829 34.1753 118.164Z" fill="white"/>
<path d="M50.6506 112.419H53.0879V114.326H50.6506V123.983H48.4103V114.326H46.3423V112.419H48.4103V108.061H50.6506V112.419Z" fill="white"/>
<path d="M63.4771 118.659V112.419H65.7174V123.983H63.4771V122.25C62.7631 123.636 61.1628 124.231 59.9073 124.231C57.0269 124.231 55.4513 122.374 55.4759 119.105V112.419H57.7162V118.957C57.7162 120.913 58.6517 122.027 60.2274 122.027C61.8522 122.027 63.4771 121.136 63.4771 118.659Z" fill="white"/>
<path d="M71.9244 119.773V123.983H69.6841V112.419H71.9244V115.019C72.5153 112.964 73.6231 112.172 75.1249 112.172C75.9373 112.172 76.799 112.394 77.1191 112.617L76.7744 114.722C76.1589 114.425 75.5434 114.326 75.0757 114.326C72.86 114.326 71.9244 116.703 71.9244 119.773Z" fill="white"/>
<path d="M80.5938 117.297H87.7333C87.4626 115.341 86.1085 114.202 84.2375 114.202C82.3418 114.202 80.8646 115.341 80.5938 117.297ZM89.9491 118.164C89.9491 118.436 89.9491 118.783 89.9245 119.055H80.5938C80.8646 121.012 82.3418 122.2 84.3113 122.2C85.6899 122.2 86.9456 121.581 87.6103 120.417C88.2011 120.69 88.9151 120.888 89.5306 121.16C88.5458 123.215 86.4778 124.231 84.2375 124.231C80.9631 124.231 78.3535 121.829 78.3535 118.164C78.3535 114.499 80.9631 112.172 84.2375 112.172C87.5118 112.172 89.9491 114.499 89.9491 118.164Z" fill="white"/>
<path d="M97.1848 119.254L95.6091 118.882C93.5167 118.313 92.3351 117.273 92.5318 115.119C92.7292 113.435 94.4522 112.172 96.52 112.172C98.4652 112.172 100.312 113.088 100.508 115.44H98.3664C98.2438 114.574 97.4556 114.128 96.5694 114.128C95.7079 114.128 95.0183 114.549 94.8463 115.168C94.7476 115.539 94.7476 115.837 94.871 116.084C95.0924 116.555 95.6338 116.802 96.2246 116.976L97.9237 117.397C100.287 117.991 100.902 119.452 100.902 120.764C100.902 122.943 98.8346 124.231 96.4467 124.231C94.3782 124.231 92.2364 122.894 92.1631 120.517H94.2062C94.2802 121.012 94.5756 121.557 95.1417 121.829C95.6585 122.151 96.2493 122.275 96.9635 122.225C98.0217 122.151 98.6865 121.581 98.7112 120.715C98.7359 119.848 98.0464 119.452 97.1848 119.254Z" fill="white"/>
</g>
</g>
<path d="M191.264 47.3201C187.936 47.3201 184.843 46.7654 181.984 45.6561C179.168 44.5041 176.693 42.9041 174.56 40.8561C172.469 38.7654 170.848 36.3548 169.696 33.6241C168.544 30.8508 167.968 27.8428 167.968 24.6001C167.968 21.3574 168.544 18.3708 169.696 15.6401C170.848 12.8668 172.469 10.4561 174.56 8.4081C176.693 6.31743 179.168 4.71743 181.984 3.6081C184.843 2.4561 187.936 1.8801 191.264 1.8801C194.592 1.8801 197.664 2.4561 200.48 3.6081C203.339 4.71743 205.813 6.2961 207.904 8.3441C209.995 10.3921 211.616 12.8028 212.768 15.5761C213.963 18.3068 214.56 21.3148 214.56 24.6001C214.56 27.8854 213.963 30.9148 212.768 33.6881C211.616 36.4188 209.995 38.8081 207.904 40.8561C205.813 42.9041 203.339 44.5041 200.48 45.6561C197.664 46.7654 194.592 47.3201 191.264 47.3201ZM191.264 44.3121C194.123 44.3121 196.768 43.8214 199.2 42.8401C201.632 41.8588 203.744 40.4721 205.536 38.6801C207.328 36.8881 208.715 34.7974 209.696 32.4081C210.72 30.0188 211.232 27.4161 211.232 24.6001C211.232 21.7414 210.72 19.1388 209.696 16.7921C208.715 14.4028 207.328 12.3121 205.536 10.5201C203.744 8.7281 201.632 7.34143 199.2 6.3601C196.768 5.37876 194.123 4.8881 191.264 4.8881C188.405 4.8881 185.76 5.37876 183.328 6.3601C180.896 7.34143 178.763 8.7281 176.928 10.5201C175.136 12.3121 173.728 14.4028 172.704 16.7921C171.723 19.1388 171.232 21.7414 171.232 24.6001C171.232 27.4161 171.723 30.0188 172.704 32.4081C173.728 34.7974 175.136 36.8881 176.928 38.6801C178.763 40.4721 180.896 41.8588 183.328 42.8401C185.76 43.8214 188.405 44.3121 191.264 44.3121ZM228.892 47.0001V15.5121L229.788 16.4721H215.836V13.5921H245.148V16.4721H231.196L232.092 15.5121V47.0001H228.892ZM275.04 47.0001L260.704 30.2961L263.392 28.7601L278.88 47.0001H275.04ZM250.4 47.0001V13.5921H253.6V47.0001H250.4ZM252.576 31.5121V28.7601H263.072V31.5121H252.576ZM263.584 30.6161L260.64 30.1041L274.336 13.5921H277.856L263.584 30.6161ZM302.006 47.2561C299.062 47.2561 296.396 46.5734 294.006 45.2081C291.66 43.8428 289.782 41.9014 288.374 39.3841C287.009 36.8241 286.326 33.7948 286.326 30.2961C286.326 26.7974 287.009 23.7894 288.374 21.2721C289.782 18.7121 291.66 16.7494 294.006 15.3841C296.396 14.0188 299.062 13.3361 302.006 13.3361C305.164 13.3361 307.98 14.0614 310.454 15.5121C312.972 16.9201 314.934 18.9041 316.342 21.4641C317.793 24.0241 318.518 26.9681 318.518 30.2961C318.518 33.6241 317.793 36.5681 316.342 39.1281C314.934 41.6881 312.972 43.6934 310.454 45.1441C307.98 46.5521 305.164 47.2561 302.006 47.2561ZM285.238 59.4161V13.5921H288.31V24.5361L287.798 30.3601L288.438 36.1841V59.4161H285.238ZM301.814 44.3761C304.374 44.3761 306.678 43.8001 308.726 42.6481C310.774 41.4534 312.374 39.7894 313.526 37.6561C314.721 35.5228 315.319 33.0694 315.319 30.2961C315.319 27.4801 314.721 25.0268 313.526 22.9361C312.374 20.8028 310.774 19.1601 308.726 18.0081C306.678 16.8134 304.374 16.2161 301.814 16.2161C299.254 16.2161 296.95 16.8134 294.902 18.0081C292.897 19.1601 291.297 20.8028 290.102 22.9361C288.95 25.0268 288.374 27.4801 288.374 30.2961C288.374 33.0694 288.95 35.5228 290.102 37.6561C291.297 39.7894 292.897 41.4534 294.902 42.6481C296.95 43.8001 299.254 44.3761 301.814 44.3761ZM340.637 47.2561C337.437 47.2561 334.578 46.5308 332.061 45.0801C329.586 43.6294 327.602 41.6241 326.109 39.0641C324.658 36.5041 323.933 33.5814 323.933 30.2961C323.933 26.9681 324.658 24.0454 326.109 21.5281C327.602 18.9681 329.586 16.9628 332.061 15.5121C334.578 14.0614 337.437 13.3361 340.637 13.3361C343.837 13.3361 346.695 14.0614 349.213 15.5121C351.73 16.9628 353.714 18.9681 355.165 21.5281C356.615 24.0454 357.341 26.9681 357.341 30.2961C357.341 33.5814 356.615 36.5041 355.165 39.0641C353.714 41.6241 351.73 43.6294 349.213 45.0801C346.695 46.5308 343.837 47.2561 340.637 47.2561ZM340.637 44.3761C343.197 44.3761 345.501 43.8001 347.549 42.6481C349.597 41.4534 351.197 39.7894 352.349 37.6561C353.501 35.5228 354.077 33.0694 354.077 30.2961C354.077 27.4801 353.501 25.0268 352.349 22.9361C351.197 20.8028 349.597 19.1601 347.549 18.0081C345.501 16.8134 343.197 16.2161 340.637 16.2161C338.077 16.2161 335.773 16.8134 333.725 18.0081C331.719 19.1601 330.119 20.8028 328.925 22.9361C327.773 25.0268 327.197 27.4801 327.197 30.2961C327.197 33.0694 327.773 35.5228 328.925 37.6561C330.119 39.7894 331.719 41.4534 333.725 42.6481C335.773 43.8001 338.077 44.3761 340.637 44.3761ZM366.162 47.0001V13.5921H369.362V42.0721L393.17 13.5921H395.986V47.0001H392.786V18.5201L368.978 47.0001H366.162ZM380.946 8.4721C378.343 8.4721 376.189 7.78943 374.482 6.4241C372.818 5.0161 371.943 3.07476 371.858 0.600098H374.226C374.311 2.34943 374.973 3.7361 376.21 4.7601C377.49 5.7841 379.069 6.2961 380.946 6.2961C382.823 6.2961 384.381 5.7841 385.618 4.7601C386.898 3.7361 387.559 2.34943 387.602 0.600098H390.034C389.991 3.07476 389.117 5.0161 387.41 6.4241C385.746 7.78943 383.591 8.4721 380.946 8.4721ZM414.267 47.0001V15.5121L415.163 16.4721H401.211V13.5921H430.523V16.4721H416.571L417.467 15.5121V47.0001H414.267ZM448.036 47.2561C444.665 47.2561 441.679 46.5308 439.076 45.0801C436.516 43.6294 434.489 41.6241 432.996 39.0641C431.545 36.5041 430.82 33.5814 430.82 30.2961C430.82 26.9681 431.503 24.0454 432.868 21.5281C434.276 18.9681 436.196 16.9628 438.628 15.5121C441.06 14.0614 443.791 13.3361 446.82 13.3361C449.849 13.3361 452.559 14.0401 454.948 15.4481C457.38 16.8561 459.279 18.8401 460.644 21.4001C462.052 23.9174 462.756 26.8401 462.756 30.1681C462.756 30.2961 462.735 30.4454 462.692 30.6161C462.692 30.7441 462.692 30.8934 462.692 31.0641H433.188V28.5681H460.964L459.684 29.7841C459.727 27.1814 459.172 24.8561 458.02 22.8081C456.911 20.7174 455.396 19.0961 453.476 17.9441C451.556 16.7494 449.337 16.1521 446.82 16.1521C444.345 16.1521 442.127 16.7494 440.164 17.9441C438.244 19.0961 436.729 20.7174 435.62 22.8081C434.511 24.8561 433.956 27.2028 433.956 29.8481V30.4241C433.956 33.1548 434.553 35.5868 435.748 37.7201C436.985 39.8108 438.671 41.4534 440.804 42.6481C442.937 43.8001 445.369 44.3761 448.1 44.3761C450.233 44.3761 452.217 43.9921 454.052 43.2241C455.929 42.4561 457.508 41.2828 458.788 39.7041L460.644 41.8161C459.193 43.6081 457.359 44.9734 455.14 45.9121C452.964 46.8081 450.596 47.2561 448.036 47.2561ZM486.45 47.0001V13.5921H489.65V28.8241H512.306V13.5921H515.506V47.0001H512.306V31.6401H489.65V47.0001H486.45ZM541.037 47.2561C537.837 47.2561 534.978 46.5308 532.461 45.0801C529.986 43.6294 528.002 41.6241 526.509 39.0641C525.058 36.5041 524.333 33.5814 524.333 30.2961C524.333 26.9681 525.058 24.0454 526.509 21.5281C528.002 18.9681 529.986 16.9628 532.461 15.5121C534.978 14.0614 537.837 13.3361 541.037 13.3361C544.237 13.3361 547.095 14.0614 549.613 15.5121C552.13 16.9628 554.114 18.9681 555.565 21.5281C557.015 24.0454 557.741 26.9681 557.741 30.2961C557.741 33.5814 557.015 36.5041 555.565 39.0641C554.114 41.6241 552.13 43.6294 549.613 45.0801C547.095 46.5308 544.237 47.2561 541.037 47.2561ZM541.037 44.3761C543.597 44.3761 545.901 43.8001 547.949 42.6481C549.997 41.4534 551.597 39.7894 552.749 37.6561C553.901 35.5228 554.477 33.0694 554.477 30.2961C554.477 27.4801 553.901 25.0268 552.749 22.9361C551.597 20.8028 549.997 19.1601 547.949 18.0081C545.901 16.8134 543.597 16.2161 541.037 16.2161C538.477 16.2161 536.173 16.8134 534.125 18.0081C532.119 19.1601 530.519 20.8028 529.325 22.9361C528.173 25.0268 527.597 27.4801 527.597 30.2961C527.597 33.0694 528.173 35.5228 529.325 37.6561C530.519 39.7894 532.119 41.4534 534.125 42.6481C536.173 43.8001 538.477 44.3761 541.037 44.3761ZM566.562 47.0001V13.5921H580.642C584.311 13.5921 587.213 14.3174 589.346 15.7681C591.479 17.2188 592.546 19.3308 592.546 22.1041C592.546 24.8348 591.501 26.9041 589.41 28.3121C587.362 29.7201 584.695 30.4241 581.41 30.4241L582.306 29.4641C586.231 29.4641 589.111 30.1894 590.946 31.6401C592.781 33.0908 593.698 35.2241 593.698 38.0401C593.698 40.8988 592.653 43.1174 590.562 44.6961C588.514 46.2321 585.335 47.0001 581.026 47.0001H566.562ZM569.698 44.3761H580.962C584.077 44.3761 586.445 43.8641 588.066 42.8401C589.687 41.8161 590.498 40.1734 590.498 37.9121C590.498 35.6081 589.773 33.9441 588.322 32.9201C586.914 31.8534 584.631 31.3201 581.474 31.3201H569.698V44.3761ZM569.698 28.8241H580.45C583.266 28.8241 585.442 28.2908 586.978 27.2241C588.557 26.1574 589.346 24.5788 589.346 22.4881C589.346 20.3974 588.557 18.8401 586.978 17.8161C585.442 16.7494 583.266 16.2161 580.45 16.2161H569.698V28.8241ZM635.526 47.0001V13.5921H638.726V47.0001H635.526ZM616.646 25.7521C620.827 25.7948 623.985 26.7121 626.118 28.5041C628.294 30.2534 629.382 32.8348 629.382 36.2481C629.382 39.7894 628.23 42.4988 625.926 44.3761C623.622 46.2534 620.294 47.1708 615.942 47.1281L603.462 47.0001V13.5921H606.662V25.6241L616.646 25.7521ZM615.814 44.5681C619.227 44.6108 621.809 43.9281 623.558 42.5201C625.307 41.1121 626.182 39.0214 626.182 36.2481C626.182 33.5601 625.307 31.5548 623.558 30.2321C621.851 28.9094 619.27 28.2268 615.814 28.1841L606.662 28.1201V44.4401L615.814 44.5681ZM650.862 47.0001V13.5921H654.062V42.0721L677.87 13.5921H680.686V47.0001H677.486V18.5201L653.678 47.0001H650.862ZM665.646 8.4721C663.043 8.4721 660.889 7.78943 659.182 6.4241C657.518 5.0161 656.643 3.07476 656.558 0.600098H658.926C659.011 2.34943 659.673 3.7361 660.91 4.7601C662.19 5.7841 663.769 6.2961 665.646 6.2961C667.523 6.2961 669.081 5.7841 670.318 4.7601C671.598 3.7361 672.259 2.34943 672.302 0.600098H674.734C674.691 3.07476 673.817 5.0161 672.11 6.4241C670.446 7.78943 668.291 8.4721 665.646 8.4721ZM707.725 47.0001V13.5921H710.861L726.669 40.0241H725.261L741.133 13.5921H744.077V47.0001H741.133V17.4321L741.773 17.6881L726.605 42.7121H725.133L709.901 17.4961L710.669 17.3681V47.0001H707.725ZM756.312 47.0001V13.5921H759.512V42.0721L783.32 13.5921H786.136V47.0001H782.936V18.5201L759.128 47.0001H756.312ZM815.169 47.2561C812.225 47.2561 809.558 46.5734 807.169 45.2081C804.822 43.8428 802.945 41.9014 801.537 39.3841C800.172 36.8241 799.489 33.7948 799.489 30.2961C799.489 26.7974 800.172 23.7894 801.537 21.2721C802.945 18.7121 804.822 16.7494 807.169 15.3841C809.558 14.0188 812.225 13.3361 815.169 13.3361C818.326 13.3361 821.142 14.0614 823.617 15.5121C826.134 16.9201 828.097 18.9041 829.505 21.4641C830.956 24.0241 831.681 26.9681 831.681 30.2961C831.681 33.6241 830.956 36.5681 829.505 39.1281C828.097 41.6881 826.134 43.6934 823.617 45.1441C821.142 46.5521 818.326 47.2561 815.169 47.2561ZM798.401 59.4161V13.5921H801.473V24.5361L800.961 30.3601L801.601 36.1841V59.4161H798.401ZM814.977 44.3761C817.537 44.3761 819.841 43.8001 821.889 42.6481C823.937 41.4534 825.537 39.7894 826.689 37.6561C827.884 35.5228 828.481 33.0694 828.481 30.2961C828.481 27.4801 827.884 25.0268 826.689 22.9361C825.537 20.8028 823.937 19.1601 821.889 18.0081C819.841 16.8134 817.537 16.2161 814.977 16.2161C812.417 16.2161 810.113 16.8134 808.065 18.0081C806.06 19.1601 804.46 20.8028 803.265 22.9361C802.113 25.0268 801.537 27.4801 801.537 30.2961C801.537 33.0694 802.113 35.5228 803.265 37.6561C804.46 39.7894 806.06 41.4534 808.065 42.6481C810.113 43.8001 812.417 44.3761 814.977 44.3761ZM195.552 124L181.216 107.296L183.904 105.76L199.392 124H195.552ZM170.912 124V90.5921H174.112V124H170.912ZM173.088 108.512V105.76H183.584V108.512H173.088ZM184.096 107.616L181.152 107.104L194.848 90.5921H198.368L184.096 107.616ZM205.687 124V90.5921H208.887V119.072L232.695 90.5921H235.511V124H232.311V95.5201L208.503 124H205.687ZM247.712 124V90.5921H250.912V105.824H273.568V90.5921H276.768V124H273.568V108.64H250.912V124H247.712ZM302.299 124.256C299.099 124.256 296.24 123.531 293.723 122.08C291.248 120.629 289.264 118.624 287.771 116.064C286.32 113.504 285.595 110.581 285.595 107.296C285.595 103.968 286.32 101.045 287.771 98.5281C289.264 95.9681 291.248 93.9628 293.723 92.5121C296.24 91.0614 299.099 90.3361 302.299 90.3361C305.499 90.3361 308.358 91.0614 310.875 92.5121C313.392 93.9628 315.376 95.9681 316.827 98.5281C318.278 101.045 319.003 103.968 319.003 107.296C319.003 110.581 318.278 113.504 316.827 116.064C315.376 118.624 313.392 120.629 310.875 122.08C308.358 123.531 305.499 124.256 302.299 124.256ZM302.299 121.376C304.859 121.376 307.163 120.8 309.211 119.648C311.259 118.453 312.859 116.789 314.011 114.656C315.163 112.523 315.739 110.069 315.739 107.296C315.739 104.48 315.163 102.027 314.011 99.9361C312.859 97.8028 311.259 96.1601 309.211 95.0081C307.163 93.8134 304.859 93.2161 302.299 93.2161C299.739 93.2161 297.435 93.8134 295.387 95.0081C293.382 96.1601 291.782 97.8028 290.587 99.9361C289.435 102.027 288.859 104.48 288.859 107.296C288.859 110.069 289.435 112.523 290.587 114.656C291.782 116.789 293.382 118.453 295.387 119.648C297.435 120.8 299.739 121.376 302.299 121.376ZM342.662 124V90.5921H356.742C360.411 90.5921 363.313 91.3174 365.446 92.7681C367.579 94.2188 368.646 96.3308 368.646 99.1041C368.646 101.835 367.601 103.904 365.51 105.312C363.462 106.72 360.795 107.424 357.51 107.424L358.406 106.464C362.331 106.464 365.211 107.189 367.046 108.64C368.881 110.091 369.798 112.224 369.798 115.04C369.798 117.899 368.753 120.117 366.662 121.696C364.614 123.232 361.435 124 357.126 124H342.662ZM345.798 121.376H357.062C360.177 121.376 362.545 120.864 364.166 119.84C365.787 118.816 366.598 117.173 366.598 114.912C366.598 112.608 365.873 110.944 364.422 109.92C363.014 108.853 360.731 108.32 357.574 108.32H345.798V121.376ZM345.798 105.824H356.55C359.366 105.824 361.542 105.291 363.078 104.224C364.657 103.157 365.446 101.579 365.446 99.4881C365.446 97.3974 364.657 95.8401 363.078 94.8161C361.542 93.7494 359.366 93.2161 356.55 93.2161H345.798V105.824ZM379.562 124V90.5921H382.698L398.506 117.024H397.098L412.97 90.5921H415.914V124H412.97V94.4321L413.61 94.6881L398.442 119.712H396.97L381.738 94.4961L382.506 94.3681V124H379.562ZM441.973 124.256C438.603 124.256 435.616 123.531 433.013 122.08C430.453 120.629 428.427 118.624 426.933 116.064C425.483 113.504 424.757 110.581 424.757 107.296C424.757 103.968 425.44 101.045 426.805 98.5281C428.213 95.9681 430.133 93.9628 432.565 92.5121C434.997 91.0614 437.728 90.3361 440.757 90.3361C443.787 90.3361 446.496 91.0401 448.885 92.4481C451.317 93.8561 453.216 95.8401 454.581 98.4001C455.989 100.917 456.693 103.84 456.693 107.168C456.693 107.296 456.672 107.445 456.629 107.616C456.629 107.744 456.629 107.893 456.629 108.064H427.125V105.568H454.901L453.621 106.784C453.664 104.181 453.109 101.856 451.957 99.8081C450.848 97.7174 449.333 96.0961 447.413 94.9441C445.493 93.7494 443.275 93.1521 440.757 93.1521C438.283 93.1521 436.064 93.7494 434.101 94.9441C432.181 96.0961 430.667 97.7174 429.557 99.8081C428.448 101.856 427.893 104.203 427.893 106.848V107.424C427.893 110.155 428.491 112.587 429.685 114.72C430.923 116.811 432.608 118.453 434.741 119.648C436.875 120.8 439.307 121.376 442.037 121.376C444.171 121.376 446.155 120.992 447.989 120.224C449.867 119.456 451.445 118.283 452.725 116.704L454.581 118.816C453.131 120.608 451.296 121.973 449.077 122.912C446.901 123.808 444.533 124.256 441.973 124.256ZM479.054 124.256C475.811 124.256 472.91 123.531 470.35 122.08C467.832 120.629 465.827 118.624 464.334 116.064C462.883 113.504 462.158 110.581 462.158 107.296C462.158 103.968 462.883 101.024 464.334 98.4641C465.827 95.9041 467.832 93.9201 470.35 92.5121C472.91 91.0614 475.811 90.3361 479.054 90.3361C481.742 90.3361 484.174 90.8481 486.35 91.8721C488.568 92.8961 490.36 94.4321 491.726 96.4801L489.358 98.2081C488.163 96.5014 486.67 95.2428 484.878 94.4321C483.086 93.6214 481.144 93.2161 479.054 93.2161C476.451 93.2161 474.104 93.8134 472.014 95.0081C469.966 96.1601 468.344 97.8028 467.15 99.9361C465.998 102.027 465.422 104.48 465.422 107.296C465.422 110.112 465.998 112.587 467.15 114.72C468.344 116.811 469.966 118.453 472.014 119.648C474.104 120.8 476.451 121.376 479.054 121.376C481.144 121.376 483.086 120.971 484.878 120.16C486.67 119.349 488.163 118.091 489.358 116.384L491.726 118.112C490.36 120.16 488.568 121.696 486.35 122.72C484.174 123.744 481.742 124.256 479.054 124.256ZM504.905 124V92.5121L505.801 93.4721H491.849V90.5921H521.161V93.4721H507.209L508.105 92.5121V124H504.905ZM538.674 124.256C535.303 124.256 532.316 123.531 529.714 122.08C527.154 120.629 525.127 118.624 523.634 116.064C522.183 113.504 521.458 110.581 521.458 107.296C521.458 103.968 522.14 101.045 523.506 98.5281C524.914 95.9681 526.834 93.9628 529.266 92.5121C531.698 91.0614 534.428 90.3361 537.458 90.3361C540.487 90.3361 543.196 91.0401 545.586 92.4481C548.018 93.8561 549.916 95.8401 551.282 98.4001C552.69 100.917 553.394 103.84 553.394 107.168C553.394 107.296 553.372 107.445 553.33 107.616C553.33 107.744 553.33 107.893 553.33 108.064H523.826V105.568H551.602L550.322 106.784C550.364 104.181 549.81 101.856 548.658 99.8081C547.548 97.7174 546.034 96.0961 544.114 94.9441C542.194 93.7494 539.975 93.1521 537.458 93.1521C534.983 93.1521 532.764 93.7494 530.802 94.9441C528.882 96.0961 527.367 97.7174 526.258 99.8081C525.148 101.856 524.594 104.203 524.594 106.848V107.424C524.594 110.155 525.191 112.587 526.385 114.72C527.623 116.811 529.308 118.453 531.442 119.648C533.575 120.8 536.007 121.376 538.738 121.376C540.871 121.376 542.855 120.992 544.69 120.224C546.567 119.456 548.146 118.283 549.426 116.704L551.282 118.816C549.831 120.608 547.996 121.973 545.778 122.912C543.602 123.808 541.234 124.256 538.674 124.256ZM590.591 124.256C587.348 124.256 584.447 123.531 581.887 122.08C579.37 120.629 577.364 118.624 575.871 116.064C574.42 113.504 573.695 110.581 573.695 107.296C573.695 103.968 574.42 101.024 575.871 98.4641C577.364 95.9041 579.37 93.9201 581.887 92.5121C584.447 91.0614 587.348 90.3361 590.591 90.3361C593.279 90.3361 595.711 90.8481 597.887 91.8721C600.106 92.8961 601.898 94.4321 603.263 96.4801L600.895 98.2081C599.7 96.5014 598.207 95.2428 596.415 94.4321C594.623 93.6214 592.682 93.2161 590.591 93.2161C587.988 93.2161 585.642 93.8134 583.551 95.0081C581.503 96.1601 579.882 97.8028 578.687 99.9361C577.535 102.027 576.959 104.48 576.959 107.296C576.959 110.112 577.535 112.587 578.687 114.72C579.882 116.811 581.503 118.453 583.551 119.648C585.642 120.8 587.988 121.376 590.591 121.376C592.682 121.376 594.623 120.971 596.415 120.16C598.207 119.349 599.7 118.091 600.895 116.384L603.263 118.112C601.898 120.16 600.106 121.696 597.887 122.72C595.711 123.744 593.279 124.256 590.591 124.256ZM625.95 124V90.5921H629.15V105.824H651.806V90.5921H655.006V124H651.806V108.64H629.15V124H625.95ZM688.089 124V116.384L687.961 115.232V102.688C687.961 99.5734 687.107 97.2054 685.401 95.5841C683.737 93.9628 681.283 93.1521 678.041 93.1521C675.737 93.1521 673.582 93.5574 671.577 94.3681C669.614 95.1361 667.929 96.1388 666.521 97.3761L664.921 95.0721C666.585 93.5788 668.59 92.4268 670.937 91.6161C673.283 90.7628 675.737 90.3361 678.297 90.3361C682.435 90.3361 685.614 91.3814 687.833 93.4721C690.051 95.5628 691.161 98.6774 691.161 102.816V124H688.089ZM676.057 124.256C673.582 124.256 671.427 123.872 669.593 123.104C667.801 122.293 666.414 121.163 665.433 119.712C664.494 118.261 664.025 116.597 664.025 114.72C664.025 113.013 664.409 111.477 665.177 110.112C665.987 108.704 667.31 107.573 669.145 106.72C670.979 105.824 673.433 105.376 676.505 105.376H688.793V107.872H676.569C673.113 107.872 670.681 108.512 669.273 109.792C667.907 111.072 667.225 112.672 667.225 114.592C667.225 116.725 668.035 118.432 669.657 119.712C671.278 120.992 673.561 121.632 676.505 121.632C679.321 121.632 681.689 120.992 683.609 119.712C685.571 118.432 687.022 116.576 687.961 114.144L688.857 116.32C687.961 118.752 686.425 120.693 684.249 122.144C682.115 123.552 679.385 124.256 676.057 124.256ZM702.562 124V90.5921H705.698L721.506 117.024H720.098L735.97 90.5921H738.914V124H735.97V94.4321L736.61 94.6881L721.442 119.712H719.97L704.738 94.4961L705.506 94.3681V124H702.562ZM751.149 124V90.5921H754.349V119.072L778.157 90.5921H780.973V124H777.773V95.5201L753.965 124H751.149Z" fill="white"/>
</g>
<defs>
<clipPath id="clip0_105_76">
<rect width="832" height="129" fill="white"/>
</clipPath>
</defs>
</svg>
