<svg width="150" height="150" viewBox="0 0 150 150" fill="none" xmlns="http://www.w3.org/2000/svg">
<path opacity="0.45" d="M106.248 118.049C130.153 100.662 135.436 67.1886 118.049 43.2836C100.662 19.3788 67.1886 14.095 43.2836 31.4821C19.3787 48.8691 14.095 82.3427 31.482 106.248C48.8691 130.153 82.3427 135.436 106.248 118.049Z" fill="white"/>
<path opacity="0.46" fill-rule="evenodd" clip-rule="evenodd" d="M67.1819 48.428C95.586 40.2798 122.01 45.465 126.185 60.0241C130.36 74.583 110.724 92.9936 82.3064 101.142C53.9023 109.29 27.478 104.105 23.303 89.5459C19.1279 74.9871 38.7644 56.5761 67.1819 48.428Z" fill="white"/>
<path opacity="0.7" fill-rule="evenodd" clip-rule="evenodd" d="M48.3939 82.3405C40.2457 53.9366 45.4309 27.5123 59.9898 23.3373C74.5489 19.1621 92.9595 38.7984 101.108 67.2159C109.256 95.62 104.071 122.044 89.5118 126.219C74.9527 130.394 56.542 110.758 48.3939 82.3405Z" fill="white"/>
<path opacity="0.37" fill-rule="evenodd" clip-rule="evenodd" d="M50.7641 61.492C65.0807 35.6334 87.4375 20.6301 100.69 27.9702C113.942 35.3102 113.067 62.2193 98.7373 88.0779C84.4207 113.936 62.0639 128.94 48.8111 121.6C35.5586 114.26 36.4341 87.3507 50.7641 61.492Z" fill="white"/>
<path opacity="0.43" fill-rule="evenodd" clip-rule="evenodd" d="M61.4579 98.758C35.5993 84.4416 20.5959 62.0982 27.9359 48.8457C35.2761 35.593 62.1852 36.4684 88.0438 50.7984C113.902 65.115 128.906 87.4718 121.566 100.724C114.226 113.977 87.3165 113.101 61.4579 98.7716V98.758Z" fill="white"/>
<path fill-rule="evenodd" clip-rule="evenodd" d="M52.0297 92.8591C47.949 87.3641 45.6325 78.4079 45.9018 71.4989C46.804 64.5089 51.9893 55.7143 56.6763 52.0645C61.7131 48.4011 71.8277 45.5593 78.0365 45.9366C85.2688 47.4179 93.4036 52.2261 97.4843 56.7109C101.565 61.7211 103.639 71.4718 103.612 78.0711C102.521 85.8691 98.3865 92.0509 92.8379 97.5055C88.4606 100.94 80.0297 103.916 71.4775 103.633C64.8781 102.92 56.0163 97.2495 52.0431 92.8591H52.0297Z" fill="white"/>
</svg>
